{
	"asset":{
		"generator":"Khronos glTF Blender I/O v4.2.69",
		"version":"2.0"
	},
	"extensionsUsed":[
		"KHR_materials_clearcoat",
		"KHR_materials_transmission",
		"KHR_materials_specular",
		"KHR_materials_ior"
	],
	"scene":0,
	"scenes":[
		{
			"name":"Scene",
			"nodes":[
				2
			]
		}
	],
	"nodes":[
		{
			"mesh":0,
			"name":"Curve.050",
			"rotation":[
				0.7071068286895752,
				0,
				0,
				0.7071068286895752
			],
			"scale":[
				0.31228959560394287,
				0.31228959560394287,
				0.31228959560394287
			],
			"translation":[
				-0.020538777112960815,
				-0.010924878530204296,
				0.02269701287150383
			]
		},
		{
			"mesh":1,
			"name":"Tri\u00e3ngulo",
			"scale":[
				0.9594582319259644,
				0.9594582319259644,
				0.9594582319259644
			]
		},
		{
			"children":[
				0,
				1
			],
			"mesh":2,
			"name":"Frasco",
			"translation":[
				-0.23078250885009766,
				0,
				0
			]
		}
	],
	"animations":[
		{
			"channels":[
				{
					"sampler":0,
					"target":{
						"node":2,
						"path":"translation"
					}
				}
			],
			"name":"FrascoAction",
			"samplers":[
				{
					"input":20,
					"interpolation":"LINEAR",
					"output":21
				}
			]
		}
	],
	"materials":[
		{
			"doubleSided":true,
			"name":"SVGMat.009",
			"pbrMetallicRoughness":{
				"baseColorFactor":[
					0,
					0,
					0,
					1
				],
				"metallicFactor":0,
				"roughnessFactor":0.4000000059604645
			}
		},
		{
			"doubleSided":true,
			"name":"Dourado",
			"pbrMetallicRoughness":{
				"baseColorFactor":[
					1,
					0.75,
					0.30000001192092896,
					1
				],
				"roughnessFactor":0.4000000059604645
			}
		},
		{
			"doubleSided":true,
			"extensions":{
				"KHR_materials_clearcoat":{
					"clearcoatFactor":0.5
				},
				"KHR_materials_transmission":{
					"transmissionFactor":1
				},
				"KHR_materials_specular":{
					"specularColorFactor":[
						2.0,
						2.0,
						2.0
					]
				},
				"KHR_materials_ior":{
					"ior":1.5199999809265137
				}
			},
			"name":"Frasco",
			"pbrMetallicRoughness":{
				"baseColorFactor":[
					0.03017234243452549,
					0.010065075941383839,
					0.009433970786631107,
					1
				],
				"metallicFactor":0,
				"roughnessFactor":0.10000000149011612
			}
		},
		{
			"doubleSided":true,
			"name":"Tampa",
			"pbrMetallicRoughness":{
				"baseColorFactor":[
					0.026149077340960503,
					0.010274417698383331,
					0.007753306068480015,
					1
				],
				"metallicFactor":0,
				"roughnessFactor":0.5
			}
		}
	],
	"meshes":[
		{
			"name":"Curve.051",
			"primitives":[
				{
					"attributes":{
						"POSITION":0,
						"NORMAL":1,
						"TEXCOORD_0":2
					},
					"indices":3,
					"material":0
				}
			]
		},
		{
			"name":"Cube.001",
			"primitives":[
				{
					"attributes":{
						"POSITION":4,
						"NORMAL":5,
						"TEXCOORD_0":6
					},
					"indices":7,
					"material":1
				}
			]
		},
		{
			"name":"Cube.004",
			"primitives":[
				{
					"attributes":{
						"POSITION":8,
						"NORMAL":9,
						"TEXCOORD_0":10
					},
					"indices":11,
					"material":2
				},
				{
					"attributes":{
						"POSITION":12,
						"NORMAL":13,
						"TEXCOORD_0":14
					},
					"indices":15,
					"material":1
				},
				{
					"attributes":{
						"POSITION":16,
						"NORMAL":17,
						"TEXCOORD_0":18
					},
					"indices":19,
					"material":3
				}
			]
		}
	],
	"accessors":[
		{
			"bufferView":0,
			"componentType":5126,
			"count":10324,
			"max":[
				0.18035906553268433,
				0,
				0.05784470960497856
			],
			"min":[
				-0.04123271256685257,
				0,
				-0.07434689998626709
			],
			"type":"VEC3"
		},
		{
			"bufferView":1,
			"componentType":5126,
			"count":10324,
			"type":"VEC3"
		},
		{
			"bufferView":2,
			"componentType":5126,
			"count":10324,
			"type":"VEC2"
		},
		{
			"bufferView":3,
			"componentType":5123,
			"count":30639,
			"type":"SCALAR"
		},
		{
			"bufferView":4,
			"componentType":5126,
			"count":6,
			"max":[
				0.05999999865889549,
				0.05999999865889549,
				0.023499999195337296
			],
			"min":[
				-0.05999999865889549,
				-0.05999999865889549,
				0.019999999552965164
			],
			"type":"VEC3"
		},
		{
			"bufferView":5,
			"componentType":5126,
			"count":6,
			"type":"VEC3"
		},
		{
			"bufferView":6,
			"componentType":5126,
			"count":6,
			"type":"VEC2"
		},
		{
			"bufferView":7,
			"componentType":5123,
			"count":24,
			"type":"SCALAR"
		},
		{
			"bufferView":8,
			"componentType":5126,
			"count":46,
			"max":[
				0.05999999865889549,
				0.05999999865889549,
				0.019999999552965164
			],
			"min":[
				-0.05999999865889549,
				-0.05999999865889549,
				-0.019999999552965164
			],
			"type":"VEC3"
		},
		{
			"bufferView":9,
			"componentType":5126,
			"count":46,
			"type":"VEC3"
		},
		{
			"bufferView":10,
			"componentType":5126,
			"count":46,
			"type":"VEC2"
		},
		{
			"bufferView":11,
			"componentType":5123,
			"count":132,
			"type":"SCALAR"
		},
		{
			"bufferView":12,
			"componentType":5126,
			"count":1015,
			"max":[
				0.019272927194833755,
				0.09676588326692581,
				0.019272904843091965
			],
			"min":[
				-0.019272897392511368,
				0.060150712728500366,
				-0.01927291974425316
			],
			"type":"VEC3"
		},
		{
			"bufferView":13,
			"componentType":5126,
			"count":1015,
			"type":"VEC3"
		},
		{
			"bufferView":14,
			"componentType":5126,
			"count":1015,
			"type":"VEC2"
		},
		{
			"bufferView":15,
			"componentType":5123,
			"count":4392,
			"type":"SCALAR"
		},
		{
			"bufferView":16,
			"componentType":5126,
			"count":273,
			"max":[
				0.02557872235774994,
				0.12242951989173889,
				0.02556387335062027
			],
			"min":[
				-0.025520797818899155,
				0.09692457318305969,
				-0.02553984895348549
			],
			"type":"VEC3"
		},
		{
			"bufferView":17,
			"componentType":5126,
			"count":273,
			"type":"VEC3"
		},
		{
			"bufferView":18,
			"componentType":5126,
			"count":273,
			"type":"VEC2"
		},
		{
			"bufferView":19,
			"componentType":5123,
			"count":1536,
			"type":"SCALAR"
		},
		{
			"bufferView":20,
			"componentType":5126,
			"count":186,
			"max":[
				7.708333333333333
			],
			"min":[
				0
			],
			"type":"SCALAR"
		},
		{
			"bufferView":21,
			"componentType":5126,
			"count":186,
			"type":"VEC3"
		}
	],
	"bufferViews":[
		{
			"buffer":0,
			"byteLength":123888,
			"byteOffset":0,
			"target":34962
		},
		{
			"buffer":0,
			"byteLength":123888,
			"byteOffset":123888,
			"target":34962
		},
		{
			"buffer":0,
			"byteLength":82592,
			"byteOffset":247776,
			"target":34962
		},
		{
			"buffer":0,
			"byteLength":61278,
			"byteOffset":330368,
			"target":34963
		},
		{
			"buffer":0,
			"byteLength":72,
			"byteOffset":391648,
			"target":34962
		},
		{
			"buffer":0,
			"byteLength":72,
			"byteOffset":391720,
			"target":34962
		},
		{
			"buffer":0,
			"byteLength":48,
			"byteOffset":391792,
			"target":34962
		},
		{
			"buffer":0,
			"byteLength":48,
			"byteOffset":391840,
			"target":34963
		},
		{
			"buffer":0,
			"byteLength":552,
			"byteOffset":391888,
			"target":34962
		},
		{
			"buffer":0,
			"byteLength":552,
			"byteOffset":392440,
			"target":34962
		},
		{
			"buffer":0,
			"byteLength":368,
			"byteOffset":392992,
			"target":34962
		},
		{
			"buffer":0,
			"byteLength":264,
			"byteOffset":393360,
			"target":34963
		},
		{
			"buffer":0,
			"byteLength":12180,
			"byteOffset":393624,
			"target":34962
		},
		{
			"buffer":0,
			"byteLength":12180,
			"byteOffset":405804,
			"target":34962
		},
		{
			"buffer":0,
			"byteLength":8120,
			"byteOffset":417984,
			"target":34962
		},
		{
			"buffer":0,
			"byteLength":8784,
			"byteOffset":426104,
			"target":34963
		},
		{
			"buffer":0,
			"byteLength":3276,
			"byteOffset":434888,
			"target":34962
		},
		{
			"buffer":0,
			"byteLength":3276,
			"byteOffset":438164,
			"target":34962
		},
		{
			"buffer":0,
			"byteLength":2184,
			"byteOffset":441440,
			"target":34962
		},
		{
			"buffer":0,
			"byteLength":3072,
			"byteOffset":443624,
			"target":34963
		},
		{
			"buffer":0,
			"byteLength":744,
			"byteOffset":446696
		},
		{
			"buffer":0,
			"byteLength":2232,
			"byteOffset":447440
		}
	],
	"buffers":[
		{
			"byteLength":449672,
			"uri":"gltf.bin"
		}
	]
}
